<?xml version="1.0" encoding="UTF-8" standalone="no"?>
<svg xmlns:xlink="http://www.w3.org/1999/xlink" xmlns="http://www.w3.org/2000/svg" version="1.1" width="6883" height="1200" id="svg2">
<defs>
<linearGradient xlink:href="#linearGradient01link" id="linearGradient4486" gradientUnits="userSpaceOnUse" x1="80" y1="120" x2="420" y2="380"/>
<linearGradient id="linearGradient01link">
      <stop offset="0" id="stop00" style="stop-color:#E0E0E0;stop-opacity:1;"/>
      <stop offset="1" id="stop01" style="stop-color:#E0E0E0;stop-opacity:0;"/>
    </linearGradient>
<linearGradient xlink:href="#linearGradient01link" id="linearGradient01" gradientUnits="userSpaceOnUse" x1="0" y1="200" x2="340" y2="460"/>
<linearGradient xlink:href="#linearGradient01link" id="linearGradient4232" gradientUnits="userSpaceOnUse" x1="100" y1="160" x2="340" y2="420"/>
</defs>
<g id="paou">
<path d="m 16 520 c 0 -100.4 1.49 -200.73 4 -301 l 0.94 -37.2 37.17 -1.76 c 31.97 -1.51 55.41 -2.29 89.26 -2.29 34.36 0 70.85 1.13 103.31 2.25 16.48 0 32.02 10.13 39.78 20.74 l 0.47 -18.94 37.17 -1.76 c 31.97 -1.51 55.41 -2.29 89.26 -2.29 34.36 0 70.85 1.13 103.31 2.25 26.53 0 49.3 22.58 49.3 49.57 1.98 93.02 4.01 190.18 4.01 290.43 0 100.4 -1.51 200.73 -4.01 301 l -0.93 37.2 -37.17 1.76 c -31.97 1.51 -55.41 2.29 -89.26 2.29 -34.37 0 -70.85 -1.13 -103.31 -2.25 -16.48 0 -32.02 -10.13 -39.78 -20.74 l -0.47 18.94 -37.17 1.76 c -31.97 1.51 -55.41 2.29 -89.26 2.29 -34.55 0 -70.48 -1.11 -103.6 -2.25 -28.13 -0.9 -49.02 -23.06 -49.02 -49.57 -1.98 -93.02 -4 -190.18 -4 -290.43 z  " id="paou-00H100" transform="translate(144,100)" style=" fill:#030303;" />
<path d="M 269.5 175.91 C 496.51 175.91 584 286.06 584 519.67 584 729.62 482.18 857.77 314.99 866 105.55 866 -4 768.16 -4 519.67 -4 311.05 82.7 185.18 269.5 175.91 z  " id="paou-00O101" transform="translate(694,100)" style=" fill:#030303;" />
<path d="m 18 520 c 0 -111.73 2 -212.95 2 -324.3 73.6 -11.37 166.21 -22.7 235 -22.7 186.93 0 315 93 315 346.67 0 269.4 -129.86 342.33 -313 342.33 -57.82 0 -121.64 -6.14 -190.44 -12.13 -27.03 -2.44 -46.56 -23.95 -46.56 -49.87 0 -93.43 -2 -179.44 -2 -280 z  " id="paou-00D102" transform="translate(1234,100)" style=" fill:#030303;" />
<path d="m 16 520 c 0 -100.4 1.49 -200.73 4 -301 l 0.94 -37.2 37.17 -1.76 c 31.97 -1.51 55.41 -2.29 89.26 -2.29 34.36 0 70.85 1.13 103.31 2.25 26.53 0 49.31 22.58 49.31 49.57 1.98 93.02 4 190.17 4 290.43 0 30.47 -0.16 62.02 -0.41 89.96 42.09 0.39 91.88 1.17 117.1 2.04 27.02 0 48.83 22.76 49.3 49.29 0.54 30.54 0.92 58.69 0.92 87.15 0 24.11 -0.27 48.44 -0.92 74.57 l -0.93 37.2 -37.17 1.76 c -33.63 1.59 -115.35 2.29 -149.26 2.29 -35.24 0 -179.27 -3.09 -213.84 -4.26 -27.69 -0.89 -48.79 -23.05 -48.79 -49.56 -1.98 -93.02 -4 -190.18 -4 -290.43 z  " id="paou-00L103" transform="translate(1760,100)" style=" fill:#030303;" />
<path d="m 16 520 c 0 -112.74 2.14 -226.27 4.94 -338.2 50.64 -2.39 189.93 -4.05 246.43 -4.05 34.23 0 141.61 1.09 175.31 2.25 27.02 0 48.83 22.76 49.3 49.29 0.54 30.54 0.91 58.69 0.91 87.15 0 35.55 -0.94 75.48 -1.85 111.77 l -37.17 1.76 c -8.8 0.42 -22.63 0.77 -36.72 1.03 4.25 7.36 6.65 15.44 6.82 24.24 0.53 27.36 0.87 51.51 0.87 75.95 0 21.62 -0.26 43.45 -0.87 67.83 l -0.31 12.48 c 9.24 0.18 16.07 0.35 21.01 0.52 27.02 0 48.83 22.76 49.3 49.29 0.54 30.54 0.91 58.69 0.91 87.15 0 35.55 -0.94 75.48 -1.85 111.77 -50.41 2.38 -155.31 4.05 -210.43 4.05 -35.24 0 -179.27 -3.09 -213.84 -4.26 -27.69 -0.89 -48.79 -23.05 -48.79 -49.56 -1.98 -93.02 -4 -190.18 -4 -290.43 z  " id="paou-00E104" transform="translate(2170,100)" style=" fill:#030303;" />
<path d="m 18 507 c 0 -111.07 2 -200.23 2 -311.3 74.36 -11.49 175.55 -22.7 245 -22.7 146.73 0 291 17.37 291 213.67 0 66.81 -29.27 123.46 -74.79 162.08 8.21 9.31 13.04 16.47 18.65 26.04 l 0.6 1.03 0.54 1.07 c 49.19 96.84 69.64 178.36 92.82 277.65 -48.43 5.66 -100.53 11.06 -153.8 11.06 -27.75 0 -55.55 -0.97 -82.82 -2.67 -14.69 -0.92 -41.29 -8.56 -50.79 -37.4 -2.1 -6.36 -4.76 -14.46 -6.51 -19.8 0.05 5.57 0.07 9.26 0.09 14.08 l 0.19 38.51 c -41.57 1.78 -85.16 3.46 -127.86 3.46 -34.21 0 -69.97 -0.74 -102.96 -1.77 -27.3 0 -49.37 -23.1 -49.37 -50 0 -93.49 -2 -202.49 -2 -303 z  " id="paou-00R105" transform="translate(2624,100)" style=" fill:#030303;" />
<path d="m -1.19 849.58 36.42 -268.76 45.26 14.22 c 39.24 12.33 77.29 21.81 107.11 27.06 -76.33 -24.58 -182.61 -78.26 -182.61 -235.43 0 -195.31 120.03 -213.67 276 -213.67 61.89 0 133.12 9.08 201.82 22.77 l 36.86 7.35 -34.73 256.55 -48.87 -22 c -9.25 -4.16 -21.97 -9.11 -32.34 -12.67 68.31 32.89 136.26 91.93 136.26 203.66 0 190.23 -144.47 236.33 -285 236.33 -69.49 0 -143.77 -3.89 -215.08 -11.21 z  " id="paou-00S106" transform="translate(3150,100)" style=" fill:#030303;" />
<path d="M -4 519.67 C -4 266 114.07 173 311 173 c 54.84 0 112.33 14.49 158.52 26.58 l -31.3 229.55 -129.68 -8.6 c -5.02 -0.33 -23.55 -4.53 -23.55 99.14 0 72.46 6.3 100.62 23.55 99.47 l 129.95 -8.62 30.02 232.91 c -50.68 9.41 -103.68 18.58 -159.51 18.58 -183.14 0 -313 -72.93 -313 -342.33 z  " id="paou-00C108" transform="translate(3942,100)" style=" fill:#030303;" />
<path d="m -13.99 768.33 c 32.07 -196.35 76 -393.93 114.84 -586.83 55.25 -2.59 112.91 -3.75 170.53 -3.75 48.51 0 96.87 0.66 143.41 2.25 24.6 0 46.18 18.74 50.4 42.65 37.49 189.72 84.61 395.4 114.26 591.37 l 6.63 43.83 -44.28 2.11 c -31.71 1.51 -55.03 2.29 -88.88 2.29 -33.98 0 -64.96 -0.07 -100.56 -2.33 -22.34 -1.42 -43.54 -17.22 -48.47 -42.17 -4.37 -22.11 -8.73 -45.75 -12.6 -67.75 h -24.88 c -4.27 26.22 -8.97 52.35 -13.99 77.36 l -6.27 31.14 -31.18 1.46 c -31.96 1.5 -50.78 2.29 -84.64 2.29 -34.36 0 -70.68 -1.13 -102.92 -2.25 -27.75 0 -47.68 -24.52 -47.68 -48.87 0 -8.81 4 -28.84 6.28 -42.8 z  " id="paou-00A109" transform="translate(4357,100)" style=" fill:#030303;" />
<path d="m -1.19 849.58 36.42 -268.76 45.26 14.22 c 39.24 12.33 77.29 21.81 107.11 27.06 -76.33 -24.58 -182.61 -78.26 -182.61 -235.43 0 -195.31 120.03 -213.67 276 -213.67 61.89 0 133.12 9.08 201.82 22.77 l 36.86 7.35 -34.73 256.55 -48.87 -22 c -9.25 -4.16 -21.97 -9.11 -32.34 -12.67 68.31 32.89 136.26 91.93 136.26 203.66 0 190.23 -144.47 236.33 -285 236.33 -69.49 0 -143.77 -3.89 -215.08 -11.21 z  " id="paou-00S110" transform="translate(4877,100)" style=" fill:#030303;" />
<path d="m 16 520 c 0 -100.4 1.49 -200.73 4 -301 l 0.94 -37.2 37.17 -1.76 c 31.97 -1.51 55.41 -2.29 89.26 -2.29 34.36 0 70.85 1.13 103.31 2.25 26.53 0 49.31 22.58 49.31 49.57 1.98 93.02 4 190.17 4 290.43 0 100.01 -1.53 201.52 -4 300.4 l -0.94 37.8 -37.17 1.76 c -31.97 1.51 -55.41 2.29 -89.26 2.29 -34.55 0 -70.48 -1.11 -103.6 -2.25 -28.13 -0.9 -49.02 -23.06 -49.02 -49.57 -1.98 -93.02 -4 -190.18 -4 -290.43 z  " id="paou-00I111" transform="translate(5369,100)" style=" fill:#030303;" />
<path d="m 16 520 c 0 -112.74 2.14 -226.27 4.94 -338.2 42.4 -2 77.24 -4.05 121.43 -4.05 29.91 0 56.71 1.04 88.21 2.29 30.77 1.22 43.1 26.59 46.49 34.96 l 23.63 58.4 -1.22 -91.52 c 43.63 -2.06 82.28 -4.12 127.89 -4.12 34.75 0 64.46 1.03 94.31 2.29 24.93 1.05 48.32 21.39 48.32 49.54 1.98 93.02 4 190.18 4 290.43 0 112.62 -2.14 226.02 -4.93 337.84 -37.18 2.35 -70.64 4.41 -116.44 4.41 -30.55 0 -60.54 -0.66 -93.58 -2.28 -29.21 -1.43 -42.23 -24.82 -46.46 -35.78 l -23.3 -57.59 1.22 91.52 c -37.86 2.02 -78.24 4.12 -122.89 4.12 -34.82 0 -66.87 -1.11 -99.08 -2.28 -25.31 -0.92 -48.55 -21.56 -48.55 -49.55 -1.98 -93.02 -4 -190.18 -4 -290.43 z  " id="paou-00N112" transform="translate(5649,100)" style=" fill:#030303;" />
<path d="M 269.5 175.91 C 496.51 175.91 584 286.06 584 519.67 584 729.62 482.18 857.77 314.99 866 105.55 866 -4 768.16 -4 519.67 -4 311.05 82.7 185.18 269.5 175.91 z  " id="paou-00O113" transform="translate(6199,100)" style=" fill:#030303;" />
</g>
<g id="paba">
<path d="m 46 500 c 0 -100 1.5 -200 4 -300 31.75 -1.5 54.13 -2.25 87.38 -2.25 33.96 0 68.67 1.08 102.62 2.25 5.52 0 10 4.48 10 10 1.46 68.67 1.85 138.41 1.96 210 h 66 c 0 -74.25 0.21 -146.67 2.04 -220 31.75 -1.5 54.13 -2.25 87.38 -2.25 33.96 0 68.67 1.08 102.62 2.25 5.52 0 10 4.48 10 10 2 94 4 190 4 290 0 100 -1.5 200 -4 300 -31.75 1.5 -54.13 2.25 -87.38 2.25 -33.96 0 -68.67 -1.08 -102.62 -2.25 -5.52 0 -10 -4.48 -10 -10 -1.39 -65.47 -1.81 -131.91 -1.94 -200 h -66.02 c -0.01 70 -0.29 140 -2.04 210 -31.75 1.5 -54.13 2.25 -87.38 2.25 -33.96 0 -68.67 -1.08 -102.62 -2.25 -5.52 0 -10 -4.48 -10 -10 -2 -94 -4 -190 -4 -290 z  " id="paba-00H100" transform="translate(144,100)" style=" fill:#F39412;" />
<path d="M 26 499.67 C 26 303.42 113 200 254 193 444.38 193 534 268.55 534 499.67 534 696.13 445 799 304 806 113.94 806 26 731.18 26 499.67 z m 208.99 0 c 0 119.15 19.01 132.33 46.01 132.33 27 0 44.01 -13.18 44.01 -132.33 0 -118.8 -20.01 -131.67 -47.01 -131.67 -27 0 -43.01 12.87 -43.01 131.67 z  " id="paba-00O101" transform="translate(694,100)" style=" fill:#F39412;" />
<path d="m 246 500 c 0 48.65 0.83 90.45 1.74 132.05 h 17.07 c 27.18 0 46.2 -13.23 46.2 -132.38 0 -118.8 -19.02 -132.05 -46.2 -132.05 h -16.89 c -0.97 41.42 -1.92 83.71 -1.92 132.38 z m -198 0 c 0 -100 2 -190.03 2 -290 66.84 -10.33 139 -17 195 -17 169 0 275 71.52 275 306.67 C 520 749.69 415 802 247 802 192 802 129.07 796.01 60 790 54.48 790 50 785.52 50 780 50 685.97 48 600 48 500 z  " id="paba-00D102" transform="translate(1234,100)" style=" fill:#F39412;" />
<path d="m 46 500 c 0 -100 1.5 -200 4 -300 31.75 -1.5 54.13 -2.25 87.38 -2.25 33.96 0 68.67 1.08 102.62 2.25 5.52 0 10 4.48 10 10 2 94 4 190 4 290 0 44.8 -0.3 87.39 -0.86 129.75 h 4.24 c 33.96 0 118.67 1.08 152.62 2.25 5.52 0 9.9 4.48 10 10 0.54 30.43 0.91 58.33 0.91 86.43 0 23.82 -0.27 47.79 -0.91 73.57 -31.75 1.5 -114.13 2.25 -147.38 2.25 -33.96 0 -178.67 -3.08 -212.62 -4.25 -5.52 0 -10 -4.48 -10 -10 -2 -94 -4 -190 -4 -290 z  " id="paba-00L103" transform="translate(1760,100)" style=" fill:#F39412;" />
<path d="m 46 500 c 0 -100 1.5 -200 4 -300 31.75 -1.5 174.13 -2.25 207.38 -2.25 33.96 0 140.67 1.08 174.62 2.25 5.52 0 9.9 4.48 10 10 0.54 30.43 0.91 58.34 0.91 86.44 0 23.82 -0.27 47.78 -0.91 73.56 -31.75 1.5 -126 2 -159 2 -7.58 0 -21.18 -0.14 -38.11 -0.37 -0.2 17.21 -0.39 34.62 -0.54 52.52 39.87 0.29 94.16 0.97 119.65 1.85 5.52 0 9.89 4.48 10 10 0.53 27.22 0.86 51.1 0.86 75.17 0 21.3 -0.26 42.76 -0.86 66.83 h -129.65 c 0.15 17.58 0.35 34.81 0.54 52 H 257 c 34 0 143.05 0.83 177 2 5.52 0 9.9 4.48 10 10 0.54 30.43 0.91 58.33 0.91 86.43 0 23.82 -0.27 47.79 -0.91 73.57 -31.75 1.5 -138.13 2.25 -171.38 2.25 -33.96 0 -178.67 -3.08 -212.62 -4.25 -5.52 0 -10 -4.48 -10 -10 -2 -94 -4 -190 -4 -290 z  " id="paba-00E104" transform="translate(2170,100)" style=" fill:#F39412;" />
<path d="m 48 487 c 0 -100 2 -177.03 2 -277 66.84 -10.33 149 -17 205 -17 149 0 251 11.52 251 173.67 0 73.61 -40.53 129.53 -106.06 160.38 23.04 8.03 41.94 24.94 55.41 47.95 39.27 77.3 61.65 149.2 79.34 225 -33.52 3.92 -68.93 5.59 -104.66 5.59 -26.81 0 -53.81 -0.94 -80.34 -2.59 -5.63 -0.35 -13.33 -4.04 -15.29 -10 -28.04 -85.09 -55.45 -170.84 -75.73 -239 -4.33 0 -8.7 -0.03 -13.12 -0.06 1.22 81.68 4.06 167.85 4.45 246.06 -29.17 1.25 -58.39 1.77 -87.66 1.77 -34.07 0 -68.19 -0.7 -102.34 -1.77 -5.79 0 -10 -4.48 -10 -10 0 -94.03 -2 -203 -2 -303 z m 197.1 -56 h 16.9 c 31.81 0 53.01 -17.34 53.01 -43.34 0 -30.86 -10 -48.13 -45.59 -48.13 -8.04 0 -16.45 0.38 -23.81 0.83 -0.18 29.28 -0.39 58.21 -0.51 90.64 z  " id="paba-00R105" transform="translate(2624,100)" style=" fill:#F39412;" />
<path d="M 34 794 58.5 613.2 c 70 22 132 34.85 177.31 34.85 37.38 0 53.2 -19.56 53.2 -35.39 0 -20.13 -28.82 -28.28 -67.05 -39.1 -75.26 -21.31 -186.96 -52.99 -186.96 -206.89 0 -162.15 100 -173.67 237 -173.67 58 0 126.16 8.67 193 22 l -22.5 166.2 c -46.77 -21.05 -118 -40.58 -180.31 -40.58 -30.26 0 -50.2 9.54 -50.2 28.04 0 17.4 30.76 26.68 71.81 38.99 82.37 24.71 206.2 61.65 206.2 201.02 0 159.27 -110 196.33 -245 196.33 -68 0 -141.06 -3.83 -211 -11 z  " id="paba-00S106" transform="translate(3150,100)" style=" fill:#F39412;" />
<path d="M 26 499.67 C 26 264.52 132 193 301 193 c 41.15 0 73.74 7.3 114 17 l -21.38 156.75 -92.43 -6.13 c -36.47 -2.42 -66.2 20.25 -66.2 139.05 0 119.15 25.78 142.06 66.2 139.38 l 92.43 -6.13 20.38 158.08 c -40.67 7.55 -73.65 11 -115 11 -168 0 -273 -52.31 -273 -302.33 z  " id="paba-00C108" transform="translate(3942,100)" style=" fill:#F39412;" />
<path d="m 9.71 791.75 c 0 -2.32 3.2 -21.18 4.84 -31.29 C 44.17 577.61 86.81 384.22 123.9 200 c 44.62 -2.09 90.67 -2.25 137.48 -2.25 48.61 0 95.15 0.62 142.72 2.25 5.52 0 10.79 4.48 11.76 10 37.83 191.47 84.66 395.83 114.04 590 -31.49 1.5 -53.73 2.25 -86.98 2.25 -33.96 0 -63.86 -0.08 -98.02 -2.25 -5.51 -0.35 -10.67 -4.5 -11.76 -10 -6.52 -32.97 -12.51 -66.35 -18.11 -100 h -92.87 c -5.51 36.96 -11.75 73.68 -19.06 110 -32.01 1.5 -49.52 2.25 -82.77 2.25 -33.96 0 -68.49 -1.08 -102.23 -2.25 -4.92 0 -8.39 -3.56 -8.39 -8.25 z M 239.08 560 h 56.05 C 284.47 485.31 274.73 410.07 264.33 335.66 255.22 409.72 247.77 484.95 239.08 560 z  " id="paba-00A109" transform="translate(4357,100)" style=" fill:#F39412;" />
<path d="M 34 794 58.5 613.2 c 70 22 132 34.85 177.31 34.85 37.38 0 53.2 -19.56 53.2 -35.39 0 -20.13 -28.82 -28.28 -67.05 -39.1 -75.26 -21.31 -186.96 -52.99 -186.96 -206.89 0 -162.15 100 -173.67 237 -173.67 58 0 126.16 8.67 193 22 l -22.5 166.2 c -46.77 -21.05 -118 -40.58 -180.31 -40.58 -30.26 0 -50.2 9.54 -50.2 28.04 0 17.4 30.76 26.68 71.81 38.99 82.37 24.71 206.2 61.65 206.2 201.02 0 159.27 -110 196.33 -245 196.33 -68 0 -141.06 -3.83 -211 -11 z  " id="paba-00S110" transform="translate(4877,100)" style=" fill:#F39412;" />
<path d="m 46 500 c 0 -100 1.5 -200 4 -300 31.75 -1.5 54.13 -2.25 87.38 -2.25 33.96 0 68.67 1.08 102.62 2.25 5.52 0 10 4.48 10 10 2 94 4 190 4 290 0 100 -1.5 200 -4 300 -31.75 1.5 -54.13 2.25 -87.38 2.25 C 128.66 802.25 93.95 801.17 60 800 54.48 800 50 795.52 50 790 48 696 46 600 46 500 z  " id="paba-00I111" transform="translate(5369,100)" style=" fill:#F39412;" />
<path d="m 46 500 c 0 -100 1.5 -200 4 -300 31.75 -1.5 49.13 -2.25 82.38 -2.25 28.96 0 55.12 1 86.62 2.25 5.52 0.22 8.95 4.93 11 10 L 333.54 465.9 330 200 c 31.75 -1.5 54.13 -2.25 87.38 -2.25 33.96 0 62.95 1 92.62 2.25 5.52 0.23 10 4.48 10 10 2 94 4 190 4 290 0 100 -1.5 200 -4 300 -27.75 1.58 -44.13 2.25 -77.38 2.25 -29.96 0 -59.2 -0.67 -91.62 -2.25 -5.51 -0.27 -9 -4.5 -11 -10 L 236.46 534.1 240 800 c -31.75 1.5 -49.13 2.25 -82.38 2.25 C 123.66 802.25 92.17 801.17 60 800 54.48 799.8 50 795.52 50 790 48 696 46 600 46 500 z  " id="paba-00N112" transform="translate(5649,100)" style=" fill:#F39412;" />
<path d="M 26 499.67 C 26 303.42 113 200 254 193 444.38 193 534 268.55 534 499.67 534 696.13 445 799 304 806 113.94 806 26 731.18 26 499.67 z m 208.99 0 c 0 119.15 19.01 132.33 46.01 132.33 27 0 44.01 -13.18 44.01 -132.33 0 -118.8 -20.01 -131.67 -47.01 -131.67 -27 0 -43.01 12.87 -43.01 131.67 z  " id="paba-00O113" transform="translate(6199,100)" style=" fill:#F39412;" />
</g>
<g id="pain">
<path d="m 66 500 c 0 -93.37 1.35 -188.55 3.54 -280.85 24.43 -1 41.39 -1.4 67.84 -1.4 30.5 0 62.12 0.9 92.82 1.93 1.44 72.89 1.68 145.32 1.8 220.32 h 105.97 c 0 -74.16 0.07 -149.18 1.6 -220.85 24.37 -1 41.39 -1.4 67.81 -1.4 30.5 0 62.11 0.9 92.83 1.93 1.95 92 3.8 183.7 3.8 280.32 0 93.37 -1.35 188.55 -3.54 280.85 -24.43 1 -41.39 1.4 -67.84 1.4 -30.5 0 -62.12 -0.9 -92.82 -1.93 -1.38 -69.73 -1.65 -138.79 -1.79 -210.32 h -105.98 c -0.01 70.28 -0.14 142.06 -1.6 210.85 -24.37 1 -41.39 1.4 -67.81 1.4 -30.5 0 -62.11 -0.9 -92.83 -1.93 -1.95 -92 -3.8 -183.7 -3.8 -280.32 z  " id="pain-00H100" transform="translate(144,100)" style="fill:url(#linearGradient4486);" />
<path d="M 46 499.67 C 46 309.31 127.24 219.67 254.5 213 435.88 213.24 514 277.12 514 499.67 514 690 430.96 779.32 303.5 786 122.51 785.75 46 722.75 46 499.67 z m 168.99 0 c 0 116.59 20.63 152.33 66.01 152.33 45.9 0 64.01 -36.52 64.01 -152.33 C 345.01 382.96 323 348 278 348 231.97 348 214.99 384.52 214.99 499.67 z  " id="pain-00O101" transform="translate(694,100)" style="fill:url(#linearGradient01);" />
<path d="m 226 500 c 0 56.67 1.08 102.06 2.17 152.01 l 36.65 0.04 c 45.52 0 66.2 -35.77 66.2 -152.38 0 -116.3 -20.65 -152.05 -66.2 -152.05 l -36.43 0.04 c -1.17 49.85 -2.38 95.51 -2.38 152.34 z m -158 0 c 0 -93.78 1.78 -180.7 1.98 -272.75 61.76 -8.83 125.05 -14.25 175.02 -14.25 160.16 0 255 60.67 255 286.67 0 240.46 -92.41 282.33 -253 282.33 -51.24 0 -112.12 -5.53 -177.02 -11.2 C 69.84 678.35 68 596.74 68 500 z  " id="pain-00D102" transform="translate(1234,100)" style="fill:url(#linearGradient01);" />
<path d="m 66 500 c 0 -93.37 1.35 -188.55 3.54 -280.85 24.43 -1 41.39 -1.4 67.84 -1.4 30.5 0 62.11 0.9 92.83 1.93 1.95 92 3.8 183.7 3.8 280.32 0 44.71 -0.3 87.21 -0.86 129.49 l -0.27 20.28 h 24.5 c 30.75 0 105.84 0.93 142.79 1.94 0.45 27 0.74 51.63 0.74 76.73 0 17.72 -0.16 35.98 -0.49 54.24 -38.11 1.05 -100.11 1.57 -127.79 1.57 -30.7 0 -158.96 -2.68 -202.83 -3.95 -1.95 -91.94 -3.8 -183.69 -3.8 -280.3 z  " id="pain-00L103" transform="translate(1760,100)" style="fill:url(#linearGradient01);" />
<path d="m 66 500 c 0 -93.19 1.36 -188.9 3.53 -280.59 50.23 -1.11 159.34 -1.66 187.84 -1.66 30.76 0 125.74 0.96 164.79 1.97 0.45 26.97 0.74 51.63 0.74 76.72 0 17.69 -0.16 36.03 -0.49 54.21 -40.45 1 -111.74 1.36 -139.42 1.36 -10.16 0 -41.77 -0.42 -57.89 -0.64 -0.36 30.64 -0.69 61.45 -0.93 92.65 39.76 0.29 98.16 0.86 130 1.71 0.44 23.96 0.68 44.22 0.68 65.46 0 15.07 -0.15 31.43 -0.43 46.83 h -130.25 c 0.25 30.88 0.58 61.52 0.93 92.05 9.91 -0.02 22.45 -0.05 31.89 -0.05 30.8 0 128.29 0.76 167.17 1.72 0.45 26.96 0.74 51.63 0.74 76.71 0 17.69 -0.16 36.03 -0.49 54.2 -43.01 1.07 -123.77 1.61 -151.79 1.61 -30.7 0 -158.96 -2.68 -202.83 -3.95 -1.95 -91.94 -3.8 -183.69 -3.8 -280.3 z  " id="pain-00E104" transform="translate(2170,100)" style="fill:url(#linearGradient01);" />
<path d="m 68 487 c 0 -93.87 1.76 -167.92 1.98 -259.73 63.65 -8.89 134.87 -14.28 185.02 -14.28 150.25 0 231 8.41 231 153.67 0 65.42 -34.85 114.18 -94.58 142.29 l -23.01 10.83 c 0 8.71 0.17 13.71 1 17.8 l 23.94 8.35 c 17.92 6.25 33.19 19.79 44.43 38.67 34.68 68.48 55.79 132.53 72.08 197.8 -26.65 2.26 -52.49 3.19 -79.84 3.19 -25.94 0 -52.49 -0.94 -77.83 -2.48 -27.88 -84.69 -54.41 -167.77 -74.36 -234.83 l -4.25 -14.27 c -16.14 -0.01 -32.26 -0.09 -48.35 -0.19 l 0.3 20.41 c 1.12 75.12 3.6 154.36 4.3 226.5 -23.7 0.75 -44.73 1.03 -67.52 1.03 -30.58 0 -62.21 -0.6 -92.35 -1.48 -0.14 -93.32 -1.98 -196.75 -1.98 -293.29 z m 157.03 -36 h 36.97 c 38.85 0 73.01 -23.68 73.01 -63.34 0 -37.1 -18.8 -68.13 -65.59 -68.13 -15.74 0 -32.1 1.11 -43.69 2 -0.26 39.22 -0.56 84.64 -0.7 129.47 z  " id="pain-00R105" transform="translate(2624,100)" style="fill:url(#linearGradient01);" />
<path d="M 56.61 776.11 75.16 639.17 c 62.84 18.39 116.79 28.88 160.65 28.88 43.96 0 73.2 -24.97 73.2 -55.39 0 -41.59 -50.23 -49.46 -81.6 -58.34 -75.98 -21.51 -172.41 -47.94 -172.41 -187.65 0 -145.77 79.35 -153.67 217 -153.67 50.8 0 110.91 7.03 170.64 18.06 l -16.49 121.8 c -47.2 -17.75 -107.89 -32.25 -163.97 -32.25 -30.45 0 -70.2 9.78 -70.2 48.04 0 40.17 52.63 48.12 86.06 58.14 84.62 25.38 191.95 58.56 191.95 181.86 0 143.92 -92.68 176.33 -225 176.33 -60.42 0 -126.98 -3.23 -188.39 -8.89 z  " id="pain-00S106" transform="translate(3150,100)" style="fill:url(#linearGradient01);" />
<path d="M 46 499.67 C 46 273.68 140.84 213 301 213 c 32.78 0 60.52 5.07 91.73 12.27 l -16.4 120.28 -73.82 -4.9 c -54.22 -3.6 -87.52 39.73 -87.52 159.01 0 99.31 23.73 163.57 87.52 159.34 l 73.68 -4.89 15.53 120.46 c -32.47 5.23 -58.8 7.42 -92.72 7.42 -160.59 0 -253 -41.88 -253 -282.33 z  " id="pain-00C108" transform="translate(3942,100)" style="fill:url(#linearGradient01);" />
<path d="m 31.6 780.45 c 28.99 -183.12 71.54 -377.03 108.8 -561.12 41.11 -1.5 79.3 -1.58 120.98 -1.58 46.39 0 90.84 0.58 136.04 2.04 36.55 184.26 80.45 377.84 109.31 561.22 -20.95 0.84 -39.14 1.24 -63.81 1.24 -31.99 0 -60.79 -0.14 -91.29 -1.88 -6.07 -31.05 -11.61 -62.1 -16.86 -93.66 l -2.78 -16.71 h -127.05 l -2.54 17.05 c -4.67 31.27 -10.19 64.18 -15.87 93.69 -23.91 1.06 -38.83 1.51 -66.18 1.51 -29.01 0 -60.95 -0.88 -88.73 -1.8 z M 318.18 580 c -11.69 -81.97 -22.57 -164.94 -34.05 -247.1 -0.87 -6.21 -1.63 -10.61 -2.88 -17.36 -5.25 -0.38 -11.26 -0.59 -17.27 -0.59 -6.02 0 -12.04 0.22 -17.29 0.72 -0.5 4.5 -1.45 11.4 -2.21 17.55 -10.06 81.75 -18.35 164.7 -27.85 246.78 h 101.56 z  " id="pain-00A109" transform="translate(4357,100)" style="fill:url(#linearGradient01);" />
<path d="M 56.61 776.11 75.16 639.17 c 62.84 18.39 116.79 28.88 160.65 28.88 43.96 0 73.2 -24.97 73.2 -55.39 0 -41.59 -50.23 -49.46 -81.6 -58.34 -75.98 -21.51 -172.41 -47.94 -172.41 -187.65 0 -145.77 79.35 -153.67 217 -153.67 50.8 0 110.91 7.03 170.64 18.06 l -16.49 121.8 c -47.2 -17.75 -107.89 -32.25 -163.97 -32.25 -30.45 0 -70.2 9.78 -70.2 48.04 0 40.17 52.63 48.12 86.06 58.14 84.62 25.38 191.95 58.56 191.95 181.86 0 143.92 -92.68 176.33 -225 176.33 -60.42 0 -126.98 -3.23 -188.39 -8.89 z  " id="pain-00S110" transform="translate(4877,100)" style="fill:url(#linearGradient01);" />
<path d="m 66 500 c 0 -93.37 1.35 -188.55 3.54 -280.85 24.43 -1 41.39 -1.4 67.84 -1.4 30.5 0 62.11 0.9 92.83 1.93 1.95 92 3.8 183.7 3.8 280.32 0 93.37 -1.35 188.55 -3.54 280.85 -24.43 1 -41.39 1.4 -67.84 1.4 -30.5 0 -62.11 -0.9 -92.83 -1.93 C 67.85 688.32 66 596.62 66 500 z  " id="pain-00I111" transform="translate(5369,100)" style="fill:url(#linearGradient01);" />
<path d="m 66 500 c 0 -93.38 1.35 -188.51 3.54 -280.88 21.96 -0.96 36.78 -1.37 62.84 -1.37 26.57 0 51.84 0.9 80 2 l 142.59 352.41 -4.71 -353.04 c 22.73 -0.93 41.19 -1.37 67.12 -1.37 30.08 0 56.96 0.83 82.83 1.86 1.96 92.15 3.8 183.72 3.8 280.39 0 93.48 -1.34 188.33 -3.54 281.02 -18.41 0.88 -32.75 1.23 -57.83 1.23 -27.76 0 -55.91 -0.63 -84.98 -1.96 l -142.61 -352.45 4.71 353.07 c -22.09 0.95 -36.29 1.34 -62.12 1.34 -30.33 0 -59.13 -0.89 -87.83 -1.91 -1.95 -92.04 -3.8 -183.71 -3.8 -280.34 z  " id="pain-00N112" transform="translate(5649,100)" style="fill:url(#linearGradient4232);" />
<path d="M 46 499.67 C 46 309.31 127.24 219.67 254.5 213 435.88 213.24 514 277.12 514 499.67 514 690 430.96 779.32 303.5 786 122.51 785.75 46 722.75 46 499.67 z m 168.99 0 c 0 116.59 20.63 152.33 66.01 152.33 45.9 0 64.01 -36.52 64.01 -152.33 C 345.01 382.96 323 348 278 348 231.97 348 214.99 384.52 214.99 499.67 z  " id="pain-00O113" transform="translate(6199,100)" style="fill:url(#linearGradient01);" />
</g>
</svg>